<svg id="Layer_1" data-name="Layer 1" xmlns="http://www.w3.org/2000/svg" viewBox="0 0 1548 1455"><defs><style>.cls-1{fill:#d9979f;}</style></defs><title>instagram</title><path class="cls-1" d="M975.69,277.74H572.42c-136.94,0-248.36,111.42-248.36,248.36V929.37c0,136.95,111.42,248.37,248.36,248.37H975.69c137,0,248.37-111.42,248.37-248.37V526.1C1224.06,389.16,1112.64,277.74,975.69,277.74Zm168.52,651.63c0,92.92-75.6,168.52-168.52,168.52H572.42c-92.91,0-168.51-75.6-168.51-168.52V526.1c0-92.91,75.6-168.51,168.51-168.51H975.69c92.92,0,168.52,75.6,168.52,168.51V929.37Z"/><path class="cls-1" d="M774.06,495.84c-127.87,0-231.91,104-231.91,231.91s104,231.89,231.91,231.89S1006,855.62,1006,727.75,901.93,495.84,774.06,495.84Zm0,384c-83.84,0-152-68.21-152-152s68.21-152,152-152,152.06,68.21,152.06,152S857.9,879.79,774.06,879.79Z"/><path class="cls-1" d="M964.76,491.28a46.19,46.19,0,1,0,32.69,13.53A46.35,46.35,0,0,0,964.76,491.28Z"/></svg>