<svg id="Layer_1" data-name="Layer 1" xmlns="http://www.w3.org/2000/svg" viewBox="0 0 1548 2187"><defs><style>.cls-1{fill:#2C2C2C;}</style></defs><title>logo</title><path class="cls-1" d="M1296,322v694a450,450,0,0,1-36.86,179.08,458,458,0,0,1-100.36,146.19,467.36,467.36,0,0,1-148.89,98.54,477.7,477.7,0,0,1-364.78,0Q632.87,1434.73,621,1429V1166c44.24,66.37,117.91,110,206.5,110,146,0,252.5-116.64,252.5-260V522H288V322Z"/><rect class="cls-1" x="288" y="90" width="1008" height="144"/><path class="cls-1" d="M288,1793V1099a450,450,0,0,1,36.86-179.08A458,458,0,0,1,425.22,773.73a467.36,467.36,0,0,1,148.89-98.54,477.7,477.7,0,0,1,364.78,0Q951.13,680.28,963,686V949c-44.24-66.37-117.91-110-206.5-110-146,0-252.5,116.64-252.5,260v494h792v200Z"/><rect class="cls-1" x="288" y="1881" width="1008" height="144"/></svg>