<svg id="Layer_1" data-name="Layer 1" xmlns="http://www.w3.org/2000/svg" viewBox="0 0 1548 1455"><defs><style>.cls-1{fill:#d9979f;fill-rule:evenodd;}</style></defs><title>twitter</title><path class="cls-1" d="M571.48,1177.24c411.12,0,636-346.31,636-646.59,0-9.85,0-19.64-.65-29.38a458.69,458.69,0,0,0,111.51-117.64A439.89,439.89,0,0,1,1190,419.39a227.7,227.7,0,0,0,98.27-125.71,443.86,443.86,0,0,1-142,55.18C1061.64,257.37,920.06,252.93,830,339c-58,55.49-82.69,138.23-64.66,217.14C585.64,547,418.19,460.67,304.67,318.73c-59.32,103.84-29,236.63,69.24,303.3a219,219,0,0,1-101.49-28.4v2.89c.06,108.16,75.07,201.29,179.33,222.72a218.84,218.84,0,0,1-100.89,3.87c29.26,92.6,113.2,156,208.8,157.85a443.78,443.78,0,0,1-277.6,97.48,451.86,451.86,0,0,1-53.22-3.27,625.44,625.44,0,0,0,342.64,101.9"/></svg>